<svg role="img" aria-label="Pulse" xmlns="http://www.w3.org/2000/svg" width="145" height="34.8" viewBox="11 17 145 34.8">
  
  <path d="M12 32 H22 L27 18 L36 46 L41 32 H52" fill="none" stroke="#FFFFFF" stroke-width="5" stroke-linecap="round" stroke-linejoin="round"></path>
  <path aria-label="pulse" fill="#FFFFFF" d="M78.868 50.800L74.516 50.800L74.516 26.252L78.868 26.252L78.868 29.176L79.004 29.176Q79.480 27.646 80.823 26.745Q82.166 25.844 83.900 25.844L83.900 25.844Q86.178 25.844 87.708 26.932Q89.238 28.020 90.054 30.077Q90.870 32.134 90.870 35.092L90.870 35.092Q90.870 38.050 90.054 40.141Q89.238 42.232 87.708 43.320Q86.178 44.408 83.900 44.408L83.900 44.408Q82.166 44.408 80.840 43.490Q79.514 42.572 79.004 41.042L79.004 41.042L78.868 41.042L78.868 50.800ZM82.506 40.804L82.506 40.804Q84.206 40.804 85.260 39.665Q86.314 38.526 86.314 36.656L86.314 36.656L86.314 33.596Q86.314 31.692 85.260 30.553Q84.206 29.414 82.506 29.414L82.506 29.414Q81.486 29.414 80.653 29.771Q79.820 30.128 79.344 30.774Q78.868 31.420 78.868 32.270L78.868 32.270L78.868 37.914Q78.868 38.832 79.344 39.478Q79.820 40.124 80.653 40.464Q81.486 40.804 82.506 40.804Z M109.376 44L105.024 44L105.024 41.042L104.854 41.042Q104.412 42.368 103.256 43.388Q102.100 44.408 99.890 44.408L99.890 44.408Q97.170 44.408 95.691 42.589Q94.212 40.770 94.212 37.472L94.212 37.472L94.212 26.252L98.564 26.252L98.564 37.030Q98.564 38.866 99.278 39.835Q99.992 40.804 101.556 40.804L101.556 40.804Q102.406 40.804 103.205 40.498Q104.004 40.192 104.514 39.563Q105.024 38.934 105.024 37.982L105.024 37.982L105.024 26.252L109.376 26.252L109.376 44Z M120.606 40.532L120.606 44L118.260 44Q116.050 44 114.979 42.878Q113.908 41.756 113.908 39.716L113.908 39.716L113.908 18.840L118.260 18.840L118.260 40.532L120.606 40.532Z M129.218 44.408L129.218 44.408Q126.668 44.408 124.934 43.541Q123.200 42.674 121.874 41.144L121.874 41.144L124.526 38.560Q125.512 39.682 126.685 40.328Q127.858 40.974 129.388 40.974L129.388 40.974Q130.952 40.974 131.649 40.430Q132.346 39.886 132.346 38.934L132.346 38.934Q132.346 38.152 131.853 37.693Q131.360 37.234 130.170 37.064L130.170 37.064L128.402 36.826Q126.498 36.588 125.172 35.942Q123.846 35.296 123.166 34.174Q122.486 33.052 122.486 31.454L122.486 31.454Q122.486 28.870 124.339 27.357Q126.192 25.844 129.218 25.844L129.218 25.844Q130.952 25.844 132.193 26.167Q133.434 26.490 134.386 27.119Q135.338 27.748 136.154 28.632L136.154 28.632L133.604 31.182Q132.822 30.366 131.734 29.822Q130.646 29.278 129.354 29.278L129.354 29.278Q127.994 29.278 127.331 29.771Q126.668 30.264 126.668 31.114L126.668 31.114Q126.668 31.998 127.195 32.457Q127.722 32.916 128.980 33.120L128.980 33.120L130.782 33.358Q133.706 33.766 135.117 35.075Q136.528 36.384 136.528 38.594L136.528 38.594Q136.528 40.294 135.627 41.620Q134.726 42.946 133.077 43.677Q131.428 44.408 129.218 44.408Z M147.044 44.408L147.044 44.408Q144.426 44.408 142.556 43.269Q140.686 42.130 139.683 40.039Q138.680 37.948 138.680 35.092L138.680 35.092Q138.680 32.304 139.666 30.213Q140.652 28.122 142.488 26.983Q144.324 25.844 146.908 25.844L146.908 25.844Q149.696 25.844 151.481 27.068Q153.266 28.292 154.133 30.315Q155 32.338 155 34.786L155 34.786L155 36.214L143.202 36.214L143.202 36.656Q143.202 38.560 144.290 39.750Q145.378 40.940 147.520 40.940L147.520 40.940Q149.118 40.940 150.172 40.243Q151.226 39.546 152.042 38.526L152.042 38.526L154.388 41.144Q153.300 42.606 151.413 43.507Q149.526 44.408 147.044 44.408ZM146.976 29.108L146.976 29.108Q145.820 29.108 144.970 29.635Q144.120 30.162 143.661 31.097Q143.202 32.032 143.202 33.256L143.202 33.256L143.202 33.528L150.478 33.528L150.478 33.222Q150.478 31.964 150.070 31.063Q149.662 30.162 148.880 29.635Q148.098 29.108 146.976 29.108Z"></path>
</svg>