<svg xmlns="http://www.w3.org/2000/svg" width="800" height="400" viewBox="0 0 800 400">
  
  <rect width="800" height="400" fill="#0A0E14"></rect>
  <g stroke="#2CE5A7" stroke-opacity="0.08" stroke-width="1.5" fill="none" stroke-linecap="round" stroke-linejoin="round">
    <path d="M-20 60 H90 L120 30 L165 90 L195 60 H320"></path>
    <path d="M320 160 H430 L460 130 L505 190 L535 160 H660"></path>
    <path d="M60 260 H170 L200 230 L245 290 L275 260 H400"></path>
    <path d="M480 360 H590 L620 330 L665 390 L695 360 H820"></path>
    <path d="M540 40 H620 L645 15 L680 65 L702 40 H790"></path>
    <path d="M-40 360 H30 L55 335 L90 385 L112 360 H200"></path>
  </g>
  <g fill="#2CE5A7" fill-opacity="0.12">
    <circle cx="320" cy="60" r="2.5"></circle><circle cx="660" cy="160" r="2.5"></circle><circle cx="400" cy="260" r="2.5"></circle><circle cx="200" cy="360" r="2.5"></circle>
  </g>
</svg>